# xmcd CD database file
#
# Track frame offsets:
#	150
#	22442
#	48577
#	60852
#	98782
#	123872
#	151117
#	178497
#	206672
#	223647
#	254535
#
# Disc length: 3843 seconds
#
# Revision: 0
# Processed by: cddbd v1.5PL3 Copyright (c) Steve Scherf et al.
# Submitted via: CDex 1.51
#
DISCID=9f0f010b
DTITLE=Toku - 30
DYEAR=1900
DGENRE=Jazz
TTITLE0=HELLO, IT'S ME
TTITLE1=LOVERS OR NOTHING AT ALL
TTITLE2=I GET LOST IN YOUR EYES
TTITLE3=THAT GIRL
TTITLE4=THE NIGHT WE CALLED IT A DAY
TTITLE5=THE RIVER FLOWS INTO THE NIGHT
TTITLE6=ROBERTA
TTITLE7=WHERE OR WHEN
TTITLE8=IT'S IN ME
TTITLE9=CAMEL SONG
TTITLE10=STARDUST
EXTD=
EXTT0=
EXTT1=
EXTT2=
EXTT3=
EXTT4=
EXTT5=
EXTT6=
EXTT7=
EXTT8=
EXTT9=
EXTT10=
PLAYORDER=
